<?xml version="1.0" encoding="UTF-8" standalone="no"?>
<!DOCTYPE svg PUBLIC "-//W3C//DTD SVG 1.1//EN"
 "http://www.w3.org/Graphics/SVG/1.1/DTD/svg11.dtd">
<!-- Generated by graphviz version 2.36.0 (20140111.2315)
 -->
<!-- Title: g Pages: 1 -->
<svg width="1196pt" height="519pt"
 viewBox="0.00 0.00 1196.00 519.00" xmlns="http://www.w3.org/2000/svg" xmlns:xlink="http://www.w3.org/1999/xlink">
<g id="graph0" class="graph" transform="scale(1 1) rotate(0) translate(4 515)">
<title>g</title>
<polygon fill="white" stroke="none" points="-4,4 -4,-515 1192,-515 1192,4 -4,4"/>
<!-- node0 -->
<g id="node1" class="node"><title>node0</title>
<polygon fill="none" stroke="black" points="0,-246 0,-402 78,-402 78,-246 0,-246"/>
<text text-anchor="middle" x="39" y="-385.2" font-family="Times,serif" font-size="16.00">2</text>
<polyline fill="none" stroke="black" points="0,-376 78,-376 "/>
<text text-anchor="middle" x="39" y="-359.2" font-family="Times,serif" font-size="16.00">bet1: 300</text>
<polyline fill="none" stroke="black" points="0,-350 78,-350 "/>
<text text-anchor="middle" x="39" y="-333.2" font-family="Times,serif" font-size="16.00">bet2: 300</text>
<polyline fill="none" stroke="black" points="0,-324 78,-324 "/>
<text text-anchor="middle" x="39" y="-307.2" font-family="Times,serif" font-size="16.00">street: 2</text>
<polyline fill="none" stroke="black" points="0,-298 78,-298 "/>
<text text-anchor="middle" x="39" y="-281.2" font-family="Times,serif" font-size="16.00">board: 3d</text>
<polyline fill="none" stroke="black" points="0,-272 78,-272 "/>
<text text-anchor="middle" x="39" y="-255.2" font-family="Times,serif" font-size="16.00">depth: 4</text>
</g>
<!-- node1 -->
<g id="node2" class="node"><title>node1</title>
<polygon fill="none" stroke="black" points="304.5,-456 304.5,-508 447.5,-508 447.5,-456 304.5,-456"/>
<text text-anchor="middle" x="376" y="-491.2" font-family="Times,serif" font-size="16.00">1</text>
<polyline fill="none" stroke="black" points="304.5,-482 447.5,-482 "/>
<text text-anchor="middle" x="376" y="-465.2" font-family="Times,serif" font-size="16.00">TERMINAL FOLD</text>
</g>
<!-- node0&#45;&gt;node1 -->
<g id="0" class="edge"><title>node0:f0&#45;&gt;node1:f0</title>
<path fill="none" stroke="black" d="M78,-389C103.72,-389 77.1367,-426.516 96,-444 163.285,-506.367 205.674,-495.888 293.883,-495.049"/>
<polygon fill="black" stroke="black" points="294.017,-498.549 304,-495 293.983,-491.549 294.017,-498.549"/>
<text text-anchor="middle" x="191" y="-499.8" font-family="Times,serif" font-size="14.00">0.25, 0.25, 0.25, 0.25, 0.25, 0.25, </text>
</g>
<!-- node2 -->
<g id="node3" class="node"><title>node2</title>
<polygon fill="none" stroke="black" points="304.5,-385 304.5,-437 447.5,-437 447.5,-385 304.5,-385"/>
<text text-anchor="middle" x="376" y="-420.2" font-family="Times,serif" font-size="16.00">1</text>
<polyline fill="none" stroke="black" points="304.5,-411 447.5,-411 "/>
<text text-anchor="middle" x="376" y="-394.2" font-family="Times,serif" font-size="16.00">TERMINAL CALL</text>
</g>
<!-- node0&#45;&gt;node2 -->
<g id="1" class="edge"><title>node0:f0&#45;&gt;node2:f0</title>
<path fill="none" stroke="black" d="M78,-389C87.8683,-389 86.7833,-398.474 96,-402 179.6,-433.987 208.865,-424.771 293.912,-424.044"/>
<polygon fill="black" stroke="black" points="294.015,-427.543 304,-424 293.985,-420.543 294.015,-427.543"/>
<text text-anchor="middle" x="191" y="-428.8" font-family="Times,serif" font-size="14.00">0.25, 0.25, 0.25, 0.25, 0.25, 0.25, </text>
</g>
<!-- node3 -->
<g id="node4" class="node"><title>node3</title>
<polygon fill="none" stroke="black" points="337,-210 337,-366 415,-366 415,-210 337,-210"/>
<text text-anchor="middle" x="376" y="-349.2" font-family="Times,serif" font-size="16.00">1</text>
<polyline fill="none" stroke="black" points="337,-340 415,-340 "/>
<text text-anchor="middle" x="376" y="-323.2" font-family="Times,serif" font-size="16.00">bet1: 300</text>
<polyline fill="none" stroke="black" points="337,-314 415,-314 "/>
<text text-anchor="middle" x="376" y="-297.2" font-family="Times,serif" font-size="16.00">bet2: 900</text>
<polyline fill="none" stroke="black" points="337,-288 415,-288 "/>
<text text-anchor="middle" x="376" y="-271.2" font-family="Times,serif" font-size="16.00">street: 2</text>
<polyline fill="none" stroke="black" points="337,-262 415,-262 "/>
<text text-anchor="middle" x="376" y="-245.2" font-family="Times,serif" font-size="16.00">board: 3d</text>
<polyline fill="none" stroke="black" points="337,-236 415,-236 "/>
<text text-anchor="middle" x="376" y="-219.2" font-family="Times,serif" font-size="16.00">depth: 3</text>
</g>
<!-- node0&#45;&gt;node3 -->
<g id="7" class="edge"><title>node0:f0&#45;&gt;node3:f0</title>
<path fill="none" stroke="black" d="M78,-389C84.4446,-389 278.319,-360.444 325.764,-354.198"/>
<polygon fill="black" stroke="black" points="326.475,-357.639 336,-353 325.661,-350.686 326.475,-357.639"/>
<text text-anchor="middle" x="191" y="-389.8" font-family="Times,serif" font-size="14.00">0.25, 0.25, 0.25, 0.25, 0.25, 0.25, </text>
</g>
<!-- node9 -->
<g id="node10" class="node"><title>node9</title>
<polygon fill="none" stroke="black" points="333,-0 333,-156 419,-156 419,-0 333,-0"/>
<text text-anchor="middle" x="376" y="-139.2" font-family="Times,serif" font-size="16.00">1</text>
<polyline fill="none" stroke="black" points="333,-130 419,-130 "/>
<text text-anchor="middle" x="376" y="-113.2" font-family="Times,serif" font-size="16.00">bet1: 300</text>
<polyline fill="none" stroke="black" points="333,-104 419,-104 "/>
<text text-anchor="middle" x="376" y="-87.2" font-family="Times,serif" font-size="16.00">bet2: 1200</text>
<polyline fill="none" stroke="black" points="333,-78 419,-78 "/>
<text text-anchor="middle" x="376" y="-61.2" font-family="Times,serif" font-size="16.00">street: 2</text>
<polyline fill="none" stroke="black" points="333,-52 419,-52 "/>
<text text-anchor="middle" x="376" y="-35.2" font-family="Times,serif" font-size="16.00">board: 3d</text>
<polyline fill="none" stroke="black" points="333,-26 419,-26 "/>
<text text-anchor="middle" x="376" y="-9.2" font-family="Times,serif" font-size="16.00">depth: 2</text>
</g>
<!-- node0&#45;&gt;node9 -->
<g id="10" class="edge"><title>node0:f0&#45;&gt;node9:f0</title>
<path fill="none" stroke="black" d="M78,-389C101.201,-389 82.6401,-358.968 96,-340 172.68,-231.133 194.282,-147.349 321.814,-143.164"/>
<polygon fill="black" stroke="black" points="322.058,-146.661 332,-143 321.945,-139.662 322.058,-146.661"/>
<text text-anchor="middle" x="191" y="-343.8" font-family="Times,serif" font-size="14.00">0.25, 0.25, 0.25, 0.25, 0.25, 0.25, </text>
</g>
<!-- node4 -->
<g id="node5" class="node"><title>node4</title>
<polygon fill="none" stroke="black" points="674.5,-421 674.5,-473 817.5,-473 817.5,-421 674.5,-421"/>
<text text-anchor="middle" x="746" y="-456.2" font-family="Times,serif" font-size="16.00">2</text>
<polyline fill="none" stroke="black" points="674.5,-447 817.5,-447 "/>
<text text-anchor="middle" x="746" y="-430.2" font-family="Times,serif" font-size="16.00">TERMINAL FOLD</text>
</g>
<!-- node3&#45;&gt;node4 -->
<g id="2" class="edge"><title>node3:f0&#45;&gt;node4:f0</title>
<path fill="none" stroke="black" d="M416,-353C433.515,-353 436.231,-363.029 448,-376 458.705,-387.799 453.289,-397.395 466,-407 539.361,-462.436 575.913,-460.245 663.885,-460.015"/>
<polygon fill="black" stroke="black" points="664.005,-463.514 674,-460 663.995,-456.514 664.005,-463.514"/>
<text text-anchor="middle" x="561" y="-463.8" font-family="Times,serif" font-size="14.00">0.33, 0.33, 0.33, 0.33, 0.33, 0.33, </text>
</g>
<!-- node5 -->
<g id="node6" class="node"><title>node5</title>
<polygon fill="none" stroke="black" points="674.5,-350 674.5,-402 817.5,-402 817.5,-350 674.5,-350"/>
<text text-anchor="middle" x="746" y="-385.2" font-family="Times,serif" font-size="16.00">2</text>
<polyline fill="none" stroke="black" points="674.5,-376 817.5,-376 "/>
<text text-anchor="middle" x="746" y="-359.2" font-family="Times,serif" font-size="16.00">TERMINAL CALL</text>
</g>
<!-- node3&#45;&gt;node5 -->
<g id="3" class="edge"><title>node3:f0&#45;&gt;node5:f0</title>
<path fill="none" stroke="black" d="M416,-353C439.077,-353 443.335,-362.66 466,-367 553.913,-383.834 579.185,-388.647 663.93,-388.981"/>
<polygon fill="black" stroke="black" points="663.993,-392.481 674,-389 664.007,-385.481 663.993,-392.481"/>
<text text-anchor="middle" x="561" y="-391.8" font-family="Times,serif" font-size="14.00">0.33, 0.33, 0.33, 0.33, 0.33, 0.33, </text>
</g>
<!-- node6 -->
<g id="node7" class="node"><title>node6</title>
<polygon fill="none" stroke="black" points="703,-175 703,-331 789,-331 789,-175 703,-175"/>
<text text-anchor="middle" x="746" y="-314.2" font-family="Times,serif" font-size="16.00">2</text>
<polyline fill="none" stroke="black" points="703,-305 789,-305 "/>
<text text-anchor="middle" x="746" y="-288.2" font-family="Times,serif" font-size="16.00">bet1: 1200</text>
<polyline fill="none" stroke="black" points="703,-279 789,-279 "/>
<text text-anchor="middle" x="746" y="-262.2" font-family="Times,serif" font-size="16.00">bet2: 900</text>
<polyline fill="none" stroke="black" points="703,-253 789,-253 "/>
<text text-anchor="middle" x="746" y="-236.2" font-family="Times,serif" font-size="16.00">street: 2</text>
<polyline fill="none" stroke="black" points="703,-227 789,-227 "/>
<text text-anchor="middle" x="746" y="-210.2" font-family="Times,serif" font-size="16.00">board: 3d</text>
<polyline fill="none" stroke="black" points="703,-201 789,-201 "/>
<text text-anchor="middle" x="746" y="-184.2" font-family="Times,serif" font-size="16.00">depth: 2</text>
</g>
<!-- node3&#45;&gt;node6 -->
<g id="6" class="edge"><title>node3:f0&#45;&gt;node6:f0</title>
<path fill="none" stroke="black" d="M416,-353C540.558,-353 572.233,-319.888 691.711,-318.077"/>
<polygon fill="black" stroke="black" points="692.027,-321.575 702,-318 691.974,-314.575 692.027,-321.575"/>
<text text-anchor="middle" x="561" y="-353.8" font-family="Times,serif" font-size="14.00">0.33, 0.33, 0.33, 0.33, 0.33, 0.33, </text>
</g>
<!-- node7 -->
<g id="node8" class="node"><title>node7</title>
<polygon fill="none" stroke="black" points="1044.5,-314 1044.5,-366 1187.5,-366 1187.5,-314 1044.5,-314"/>
<text text-anchor="middle" x="1116" y="-349.2" font-family="Times,serif" font-size="16.00">1</text>
<polyline fill="none" stroke="black" points="1044.5,-340 1187.5,-340 "/>
<text text-anchor="middle" x="1116" y="-323.2" font-family="Times,serif" font-size="16.00">TERMINAL FOLD</text>
</g>
<!-- node6&#45;&gt;node7 -->
<g id="4" class="edge"><title>node6:f0&#45;&gt;node7:f0</title>
<path fill="none" stroke="black" d="M790,-318C811.245,-318 815.139,-326.979 836,-331 923.893,-347.94 949.183,-352.655 1033.93,-352.981"/>
<polygon fill="black" stroke="black" points="1033.99,-356.481 1044,-353 1034.01,-349.481 1033.99,-356.481"/>
<text text-anchor="middle" x="931" y="-355.8" font-family="Times,serif" font-size="14.00">0.50, 0.50, 0.50, 0.50, 0.50, 0.50, </text>
</g>
<!-- node8 -->
<g id="node9" class="node"><title>node8</title>
<polygon fill="none" stroke="black" points="1044.5,-243 1044.5,-295 1187.5,-295 1187.5,-243 1044.5,-243"/>
<text text-anchor="middle" x="1116" y="-278.2" font-family="Times,serif" font-size="16.00">1</text>
<polyline fill="none" stroke="black" points="1044.5,-269 1187.5,-269 "/>
<text text-anchor="middle" x="1116" y="-252.2" font-family="Times,serif" font-size="16.00">TERMINAL CALL</text>
</g>
<!-- node6&#45;&gt;node8 -->
<g id="5" class="edge"><title>node6:f0&#45;&gt;node8:f0</title>
<path fill="none" stroke="black" d="M790,-318C900.565,-318 928.33,-284.147 1033.88,-282.097"/>
<polygon fill="black" stroke="black" points="1034.03,-285.596 1044,-282 1033.97,-278.596 1034.03,-285.596"/>
<text text-anchor="middle" x="931" y="-318.8" font-family="Times,serif" font-size="14.00">0.50, 0.50, 0.50, 0.50, 0.50, 0.50, </text>
</g>
<!-- node10 -->
<g id="node11" class="node"><title>node10</title>
<polygon fill="none" stroke="black" points="674.5,-104 674.5,-156 817.5,-156 817.5,-104 674.5,-104"/>
<text text-anchor="middle" x="746" y="-139.2" font-family="Times,serif" font-size="16.00">2</text>
<polyline fill="none" stroke="black" points="674.5,-130 817.5,-130 "/>
<text text-anchor="middle" x="746" y="-113.2" font-family="Times,serif" font-size="16.00">TERMINAL FOLD</text>
</g>
<!-- node9&#45;&gt;node10 -->
<g id="8" class="edge"><title>node9:f0&#45;&gt;node10:f0</title>
<path fill="none" stroke="black" d="M420,-143C529.471,-143 559.325,-143 663.975,-143"/>
<polygon fill="black" stroke="black" points="664,-146.5 674,-143 664,-139.5 664,-146.5"/>
<text text-anchor="middle" x="561" y="-146.8" font-family="Times,serif" font-size="14.00">0.50, 0.50, 0.50, 0.50, 0.50, 0.50, </text>
</g>
<!-- node11 -->
<g id="node12" class="node"><title>node11</title>
<polygon fill="none" stroke="black" points="674.5,-33 674.5,-85 817.5,-85 817.5,-33 674.5,-33"/>
<text text-anchor="middle" x="746" y="-68.2" font-family="Times,serif" font-size="16.00">2</text>
<polyline fill="none" stroke="black" points="674.5,-59 817.5,-59 "/>
<text text-anchor="middle" x="746" y="-42.2" font-family="Times,serif" font-size="16.00">TERMINAL CALL</text>
</g>
<!-- node9&#45;&gt;node11 -->
<g id="9" class="edge"><title>node9:f0&#45;&gt;node11:f0</title>
<path fill="none" stroke="black" d="M420,-143C446.237,-143 442.04,-116.692 466,-106 548.367,-69.246 578.114,-71.7488 663.834,-71.9851"/>
<polygon fill="black" stroke="black" points="663.995,-75.4853 674,-72 664.005,-68.4853 663.995,-75.4853"/>
<text text-anchor="middle" x="561" y="-109.8" font-family="Times,serif" font-size="14.00">0.50, 0.50, 0.50, 0.50, 0.50, 0.50, </text>
</g>
</g>
</svg>
